<?xml version="1.0" encoding="utf-8" standalone="no"?>
<!DOCTYPE svg PUBLIC "-//W3C//DTD SVG 1.1//EN"
  "http://www.w3.org/Graphics/SVG/1.1/DTD/svg11.dtd">
<svg xmlns:xlink="http://www.w3.org/1999/xlink" width="405.915pt" height="393.0625pt" viewBox="0 0 405.915 393.0625" xmlns="http://www.w3.org/2000/svg" version="1.1">
 <metadata>
  <rdf:RDF xmlns:dc="http://purl.org/dc/elements/1.1/" xmlns:cc="http://creativecommons.org/ns#" xmlns:rdf="http://www.w3.org/1999/02/22-rdf-syntax-ns#">
   <cc:Work>
    <dc:type rdf:resource="http://purl.org/dc/dcmitype/StillImage"/>
    <dc:date>2025-01-16T12:46:33.283703</dc:date>
    <dc:format>image/svg+xml</dc:format>
    <dc:creator>
     <cc:Agent>
      <dc:title>Matplotlib v3.6.0, https://matplotlib.org/</dc:title>
     </cc:Agent>
    </dc:creator>
   </cc:Work>
  </rdf:RDF>
 </metadata>
 <defs>
  <style type="text/css">*{stroke-linejoin: round; stroke-linecap: butt}</style>
 </defs>
 <g id="figure_1">
  <g id="patch_1">
   <path d="M 0 393.0625 
L 405.915 393.0625 
L 405.915 0 
L 0 0 
z
" style="fill: #ffffff"/>
  </g>
  <g id="axes_1">
   <g id="patch_2">
    <path d="M 63.915 339.84 
L 398.715 339.84 
L 398.715 7.2 
L 63.915 7.2 
z
" style="fill: #ffffff"/>
   </g>
   <g id="PathCollection_1">
    <defs>
     <path id="m1df4f917a2" d="M 0 1.581139 
C 0.419323 1.581139 0.821528 1.41454 1.118034 1.118034 
C 1.41454 0.821528 1.581139 0.419323 1.581139 0 
C 1.581139 -0.419323 1.41454 -0.821528 1.118034 -1.118034 
C 0.821528 -1.41454 0.419323 -1.581139 0 -1.581139 
C -0.419323 -1.581139 -0.821528 -1.41454 -1.118034 -1.118034 
C -1.41454 -0.821528 -1.581139 -0.419323 -1.581139 0 
C -1.581139 0.419323 -1.41454 0.821528 -1.118034 1.118034 
C -0.821528 1.41454 -0.419323 1.581139 0 1.581139 
z
" style="stroke: #0000ff"/>
    </defs>
    <g clip-path="url(#pac7fafc182)">
     <use xlink:href="#m1df4f917a2" x="79.133182" y="324.72" style="fill: #0000ff; stroke: #0000ff"/>
     <use xlink:href="#m1df4f917a2" x="83.964351" y="309.505198" style="fill: #0000ff; stroke: #0000ff"/>
     <use xlink:href="#m1df4f917a2" x="88.795519" y="298.755841" style="fill: #0000ff; stroke: #0000ff"/>
     <use xlink:href="#m1df4f917a2" x="93.626688" y="298.045192" style="fill: #0000ff; stroke: #0000ff"/>
     <use xlink:href="#m1df4f917a2" x="98.457857" y="297.482246" style="fill: #0000ff; stroke: #0000ff"/>
     <use xlink:href="#m1df4f917a2" x="103.289026" y="286.825144" style="fill: #0000ff; stroke: #0000ff"/>
     <use xlink:href="#m1df4f917a2" x="108.120195" y="277.262116" style="fill: #0000ff; stroke: #0000ff"/>
     <use xlink:href="#m1df4f917a2" x="112.951364" y="267.369982" style="fill: #0000ff; stroke: #0000ff"/>
     <use xlink:href="#m1df4f917a2" x="117.782532" y="262.071414" style="fill: #0000ff; stroke: #0000ff"/>
     <use xlink:href="#m1df4f917a2" x="122.613701" y="257.756967" style="fill: #0000ff; stroke: #0000ff"/>
     <use xlink:href="#m1df4f917a2" x="127.44487" y="254.557398" style="fill: #0000ff; stroke: #0000ff"/>
     <use xlink:href="#m1df4f917a2" x="132.276039" y="249.487586" style="fill: #0000ff; stroke: #0000ff"/>
     <use xlink:href="#m1df4f917a2" x="137.107208" y="245.232822" style="fill: #0000ff; stroke: #0000ff"/>
     <use xlink:href="#m1df4f917a2" x="141.938377" y="239.596675" style="fill: #0000ff; stroke: #0000ff"/>
     <use xlink:href="#m1df4f917a2" x="146.769545" y="236.721789" style="fill: #0000ff; stroke: #0000ff"/>
     <use xlink:href="#m1df4f917a2" x="151.600714" y="236.48362" style="fill: #0000ff; stroke: #0000ff"/>
     <use xlink:href="#m1df4f917a2" x="156.431883" y="233.17598" style="fill: #0000ff; stroke: #0000ff"/>
     <use xlink:href="#m1df4f917a2" x="161.263052" y="232.494796" style="fill: #0000ff; stroke: #0000ff"/>
     <use xlink:href="#m1df4f917a2" x="166.094221" y="224.492392" style="fill: #0000ff; stroke: #0000ff"/>
     <use xlink:href="#m1df4f917a2" x="170.92539" y="224.429413" style="fill: #0000ff; stroke: #0000ff"/>
     <use xlink:href="#m1df4f917a2" x="175.756558" y="221.871961" style="fill: #0000ff; stroke: #0000ff"/>
     <use xlink:href="#m1df4f917a2" x="180.587727" y="220.793985" style="fill: #0000ff; stroke: #0000ff"/>
     <use xlink:href="#m1df4f917a2" x="185.418896" y="218.380658" style="fill: #0000ff; stroke: #0000ff"/>
     <use xlink:href="#m1df4f917a2" x="190.250065" y="218.085535" style="fill: #0000ff; stroke: #0000ff"/>
     <use xlink:href="#m1df4f917a2" x="195.081234" y="217.092942" style="fill: #0000ff; stroke: #0000ff"/>
     <use xlink:href="#m1df4f917a2" x="199.912403" y="215.210743" style="fill: #0000ff; stroke: #0000ff"/>
     <use xlink:href="#m1df4f917a2" x="204.743571" y="213.890078" style="fill: #0000ff; stroke: #0000ff"/>
     <use xlink:href="#m1df4f917a2" x="209.57474" y="211.750976" style="fill: #0000ff; stroke: #0000ff"/>
     <use xlink:href="#m1df4f917a2" x="214.405909" y="211.63481" style="fill: #0000ff; stroke: #0000ff"/>
     <use xlink:href="#m1df4f917a2" x="219.237078" y="210.537912" style="fill: #0000ff; stroke: #0000ff"/>
     <use xlink:href="#m1df4f917a2" x="224.068247" y="208.851709" style="fill: #0000ff; stroke: #0000ff"/>
     <use xlink:href="#m1df4f917a2" x="228.899416" y="207.88698" style="fill: #0000ff; stroke: #0000ff"/>
     <use xlink:href="#m1df4f917a2" x="233.730584" y="206.826984" style="fill: #0000ff; stroke: #0000ff"/>
     <use xlink:href="#m1df4f917a2" x="238.561753" y="204.861473" style="fill: #0000ff; stroke: #0000ff"/>
     <use xlink:href="#m1df4f917a2" x="243.392922" y="204.169463" style="fill: #0000ff; stroke: #0000ff"/>
     <use xlink:href="#m1df4f917a2" x="248.224091" y="203.614895" style="fill: #0000ff; stroke: #0000ff"/>
     <use xlink:href="#m1df4f917a2" x="253.05526" y="203.112574" style="fill: #0000ff; stroke: #0000ff"/>
     <use xlink:href="#m1df4f917a2" x="257.886429" y="201.566354" style="fill: #0000ff; stroke: #0000ff"/>
     <use xlink:href="#m1df4f917a2" x="262.717597" y="192.600916" style="fill: #0000ff; stroke: #0000ff"/>
     <use xlink:href="#m1df4f917a2" x="267.548766" y="189.213259" style="fill: #0000ff; stroke: #0000ff"/>
     <use xlink:href="#m1df4f917a2" x="272.379935" y="185.870412" style="fill: #0000ff; stroke: #0000ff"/>
     <use xlink:href="#m1df4f917a2" x="277.211104" y="184.836022" style="fill: #0000ff; stroke: #0000ff"/>
     <use xlink:href="#m1df4f917a2" x="282.042273" y="176.941782" style="fill: #0000ff; stroke: #0000ff"/>
     <use xlink:href="#m1df4f917a2" x="286.873442" y="176.00746" style="fill: #0000ff; stroke: #0000ff"/>
     <use xlink:href="#m1df4f917a2" x="291.70461" y="175.291257" style="fill: #0000ff; stroke: #0000ff"/>
     <use xlink:href="#m1df4f917a2" x="296.535779" y="168.417193" style="fill: #0000ff; stroke: #0000ff"/>
     <use xlink:href="#m1df4f917a2" x="301.366948" y="167.47807" style="fill: #0000ff; stroke: #0000ff"/>
     <use xlink:href="#m1df4f917a2" x="306.198117" y="166.117585" style="fill: #0000ff; stroke: #0000ff"/>
     <use xlink:href="#m1df4f917a2" x="311.029286" y="159.994837" style="fill: #0000ff; stroke: #0000ff"/>
     <use xlink:href="#m1df4f917a2" x="315.860455" y="154.896596" style="fill: #0000ff; stroke: #0000ff"/>
     <use xlink:href="#m1df4f917a2" x="320.691623" y="139.784687" style="fill: #0000ff; stroke: #0000ff"/>
     <use xlink:href="#m1df4f917a2" x="325.522792" y="132.945265" style="fill: #0000ff; stroke: #0000ff"/>
     <use xlink:href="#m1df4f917a2" x="330.353961" y="129.551113" style="fill: #0000ff; stroke: #0000ff"/>
     <use xlink:href="#m1df4f917a2" x="335.18513" y="110.862047" style="fill: #0000ff; stroke: #0000ff"/>
     <use xlink:href="#m1df4f917a2" x="340.016299" y="107.641392" style="fill: #0000ff; stroke: #0000ff"/>
     <use xlink:href="#m1df4f917a2" x="344.847468" y="106.984401" style="fill: #0000ff; stroke: #0000ff"/>
     <use xlink:href="#m1df4f917a2" x="349.678636" y="92.622021" style="fill: #0000ff; stroke: #0000ff"/>
     <use xlink:href="#m1df4f917a2" x="354.509805" y="89.769069" style="fill: #0000ff; stroke: #0000ff"/>
     <use xlink:href="#m1df4f917a2" x="359.340974" y="78.133683" style="fill: #0000ff; stroke: #0000ff"/>
     <use xlink:href="#m1df4f917a2" x="364.172143" y="73.682171" style="fill: #0000ff; stroke: #0000ff"/>
     <use xlink:href="#m1df4f917a2" x="369.003312" y="45.444386" style="fill: #0000ff; stroke: #0000ff"/>
     <use xlink:href="#m1df4f917a2" x="373.834481" y="34.798581" style="fill: #0000ff; stroke: #0000ff"/>
     <use xlink:href="#m1df4f917a2" x="378.665649" y="26.349208" style="fill: #0000ff; stroke: #0000ff"/>
     <use xlink:href="#m1df4f917a2" x="383.496818" y="22.32" style="fill: #0000ff; stroke: #0000ff"/>
    </g>
   </g>
   <g id="matplotlib.axis_1">
    <g id="text_1">
     <!-- Participants (sorted) -->
     <g transform="translate(123.94875 380.81125) scale(0.24 -0.24)">
      <defs>
       <path id="ArialMT-50" d="M 494 0 
L 494 4581 
L 2222 4581 
Q 2678 4581 2919 4538 
Q 3256 4481 3484 4323 
Q 3713 4166 3852 3881 
Q 3991 3597 3991 3256 
Q 3991 2672 3619 2267 
Q 3247 1863 2275 1863 
L 1100 1863 
L 1100 0 
L 494 0 
z
M 1100 2403 
L 2284 2403 
Q 2872 2403 3119 2622 
Q 3366 2841 3366 3238 
Q 3366 3525 3220 3729 
Q 3075 3934 2838 4000 
Q 2684 4041 2272 4041 
L 1100 4041 
L 1100 2403 
z
" transform="scale(0.015625)"/>
       <path id="ArialMT-61" d="M 2588 409 
Q 2275 144 1986 34 
Q 1697 -75 1366 -75 
Q 819 -75 525 192 
Q 231 459 231 875 
Q 231 1119 342 1320 
Q 453 1522 633 1644 
Q 813 1766 1038 1828 
Q 1203 1872 1538 1913 
Q 2219 1994 2541 2106 
Q 2544 2222 2544 2253 
Q 2544 2597 2384 2738 
Q 2169 2928 1744 2928 
Q 1347 2928 1158 2789 
Q 969 2650 878 2297 
L 328 2372 
Q 403 2725 575 2942 
Q 747 3159 1072 3276 
Q 1397 3394 1825 3394 
Q 2250 3394 2515 3294 
Q 2781 3194 2906 3042 
Q 3031 2891 3081 2659 
Q 3109 2516 3109 2141 
L 3109 1391 
Q 3109 606 3145 398 
Q 3181 191 3288 0 
L 2700 0 
Q 2613 175 2588 409 
z
M 2541 1666 
Q 2234 1541 1622 1453 
Q 1275 1403 1131 1340 
Q 988 1278 909 1158 
Q 831 1038 831 891 
Q 831 666 1001 516 
Q 1172 366 1500 366 
Q 1825 366 2078 508 
Q 2331 650 2450 897 
Q 2541 1088 2541 1459 
L 2541 1666 
z
" transform="scale(0.015625)"/>
       <path id="ArialMT-72" d="M 416 0 
L 416 3319 
L 922 3319 
L 922 2816 
Q 1116 3169 1280 3281 
Q 1444 3394 1641 3394 
Q 1925 3394 2219 3213 
L 2025 2691 
Q 1819 2813 1613 2813 
Q 1428 2813 1281 2702 
Q 1134 2591 1072 2394 
Q 978 2094 978 1738 
L 978 0 
L 416 0 
z
" transform="scale(0.015625)"/>
       <path id="ArialMT-74" d="M 1650 503 
L 1731 6 
Q 1494 -44 1306 -44 
Q 1000 -44 831 53 
Q 663 150 594 308 
Q 525 466 525 972 
L 525 2881 
L 113 2881 
L 113 3319 
L 525 3319 
L 525 4141 
L 1084 4478 
L 1084 3319 
L 1650 3319 
L 1650 2881 
L 1084 2881 
L 1084 941 
Q 1084 700 1114 631 
Q 1144 563 1211 522 
Q 1278 481 1403 481 
Q 1497 481 1650 503 
z
" transform="scale(0.015625)"/>
       <path id="ArialMT-69" d="M 425 3934 
L 425 4581 
L 988 4581 
L 988 3934 
L 425 3934 
z
M 425 0 
L 425 3319 
L 988 3319 
L 988 0 
L 425 0 
z
" transform="scale(0.015625)"/>
       <path id="ArialMT-63" d="M 2588 1216 
L 3141 1144 
Q 3050 572 2676 248 
Q 2303 -75 1759 -75 
Q 1078 -75 664 370 
Q 250 816 250 1647 
Q 250 2184 428 2587 
Q 606 2991 970 3192 
Q 1334 3394 1763 3394 
Q 2303 3394 2647 3120 
Q 2991 2847 3088 2344 
L 2541 2259 
Q 2463 2594 2264 2762 
Q 2066 2931 1784 2931 
Q 1359 2931 1093 2626 
Q 828 2322 828 1663 
Q 828 994 1084 691 
Q 1341 388 1753 388 
Q 2084 388 2306 591 
Q 2528 794 2588 1216 
z
" transform="scale(0.015625)"/>
       <path id="ArialMT-70" d="M 422 -1272 
L 422 3319 
L 934 3319 
L 934 2888 
Q 1116 3141 1344 3267 
Q 1572 3394 1897 3394 
Q 2322 3394 2647 3175 
Q 2972 2956 3137 2557 
Q 3303 2159 3303 1684 
Q 3303 1175 3120 767 
Q 2938 359 2589 142 
Q 2241 -75 1856 -75 
Q 1575 -75 1351 44 
Q 1128 163 984 344 
L 984 -1272 
L 422 -1272 
z
M 931 1641 
Q 931 1000 1190 694 
Q 1450 388 1819 388 
Q 2194 388 2461 705 
Q 2728 1022 2728 1688 
Q 2728 2322 2467 2637 
Q 2206 2953 1844 2953 
Q 1484 2953 1207 2617 
Q 931 2281 931 1641 
z
" transform="scale(0.015625)"/>
       <path id="ArialMT-6e" d="M 422 0 
L 422 3319 
L 928 3319 
L 928 2847 
Q 1294 3394 1984 3394 
Q 2284 3394 2536 3286 
Q 2788 3178 2913 3003 
Q 3038 2828 3088 2588 
Q 3119 2431 3119 2041 
L 3119 0 
L 2556 0 
L 2556 2019 
Q 2556 2363 2490 2533 
Q 2425 2703 2258 2804 
Q 2091 2906 1866 2906 
Q 1506 2906 1245 2678 
Q 984 2450 984 1813 
L 984 0 
L 422 0 
z
" transform="scale(0.015625)"/>
       <path id="ArialMT-73" d="M 197 991 
L 753 1078 
Q 800 744 1014 566 
Q 1228 388 1613 388 
Q 2000 388 2187 545 
Q 2375 703 2375 916 
Q 2375 1106 2209 1216 
Q 2094 1291 1634 1406 
Q 1016 1563 777 1677 
Q 538 1791 414 1992 
Q 291 2194 291 2438 
Q 291 2659 392 2848 
Q 494 3038 669 3163 
Q 800 3259 1026 3326 
Q 1253 3394 1513 3394 
Q 1903 3394 2198 3281 
Q 2494 3169 2634 2976 
Q 2775 2784 2828 2463 
L 2278 2388 
Q 2241 2644 2061 2787 
Q 1881 2931 1553 2931 
Q 1166 2931 1000 2803 
Q 834 2675 834 2503 
Q 834 2394 903 2306 
Q 972 2216 1119 2156 
Q 1203 2125 1616 2013 
Q 2213 1853 2448 1751 
Q 2684 1650 2818 1456 
Q 2953 1263 2953 975 
Q 2953 694 2789 445 
Q 2625 197 2315 61 
Q 2006 -75 1616 -75 
Q 969 -75 630 194 
Q 291 463 197 991 
z
" transform="scale(0.015625)"/>
       <path id="ArialMT-20" transform="scale(0.015625)"/>
       <path id="ArialMT-28" d="M 1497 -1347 
Q 1031 -759 709 28 
Q 388 816 388 1659 
Q 388 2403 628 3084 
Q 909 3875 1497 4659 
L 1900 4659 
Q 1522 4009 1400 3731 
Q 1209 3300 1100 2831 
Q 966 2247 966 1656 
Q 966 153 1900 -1347 
L 1497 -1347 
z
" transform="scale(0.015625)"/>
       <path id="ArialMT-6f" d="M 213 1659 
Q 213 2581 725 3025 
Q 1153 3394 1769 3394 
Q 2453 3394 2887 2945 
Q 3322 2497 3322 1706 
Q 3322 1066 3130 698 
Q 2938 331 2570 128 
Q 2203 -75 1769 -75 
Q 1072 -75 642 372 
Q 213 819 213 1659 
z
M 791 1659 
Q 791 1022 1069 705 
Q 1347 388 1769 388 
Q 2188 388 2466 706 
Q 2744 1025 2744 1678 
Q 2744 2294 2464 2611 
Q 2184 2928 1769 2928 
Q 1347 2928 1069 2612 
Q 791 2297 791 1659 
z
" transform="scale(0.015625)"/>
       <path id="ArialMT-65" d="M 2694 1069 
L 3275 997 
Q 3138 488 2766 206 
Q 2394 -75 1816 -75 
Q 1088 -75 661 373 
Q 234 822 234 1631 
Q 234 2469 665 2931 
Q 1097 3394 1784 3394 
Q 2450 3394 2872 2941 
Q 3294 2488 3294 1666 
Q 3294 1616 3291 1516 
L 816 1516 
Q 847 969 1125 678 
Q 1403 388 1819 388 
Q 2128 388 2347 550 
Q 2566 713 2694 1069 
z
M 847 1978 
L 2700 1978 
Q 2663 2397 2488 2606 
Q 2219 2931 1791 2931 
Q 1403 2931 1139 2672 
Q 875 2413 847 1978 
z
" transform="scale(0.015625)"/>
       <path id="ArialMT-64" d="M 2575 0 
L 2575 419 
Q 2259 -75 1647 -75 
Q 1250 -75 917 144 
Q 584 363 401 755 
Q 219 1147 219 1656 
Q 219 2153 384 2558 
Q 550 2963 881 3178 
Q 1213 3394 1622 3394 
Q 1922 3394 2156 3267 
Q 2391 3141 2538 2938 
L 2538 4581 
L 3097 4581 
L 3097 0 
L 2575 0 
z
M 797 1656 
Q 797 1019 1065 703 
Q 1334 388 1700 388 
Q 2069 388 2326 689 
Q 2584 991 2584 1609 
Q 2584 2291 2321 2609 
Q 2059 2928 1675 2928 
Q 1300 2928 1048 2622 
Q 797 2316 797 1656 
z
" transform="scale(0.015625)"/>
       <path id="ArialMT-29" d="M 791 -1347 
L 388 -1347 
Q 1322 153 1322 1656 
Q 1322 2244 1188 2822 
Q 1081 3291 891 3722 
Q 769 4003 388 4659 
L 791 4659 
Q 1378 3875 1659 3084 
Q 1900 2403 1900 1659 
Q 1900 816 1576 28 
Q 1253 -759 791 -1347 
z
" transform="scale(0.015625)"/>
      </defs>
      <use xlink:href="#ArialMT-50"/>
      <use xlink:href="#ArialMT-61" x="66.699219"/>
      <use xlink:href="#ArialMT-72" x="122.314453"/>
      <use xlink:href="#ArialMT-74" x="155.615234"/>
      <use xlink:href="#ArialMT-69" x="183.398438"/>
      <use xlink:href="#ArialMT-63" x="205.615234"/>
      <use xlink:href="#ArialMT-69" x="255.615234"/>
      <use xlink:href="#ArialMT-70" x="277.832031"/>
      <use xlink:href="#ArialMT-61" x="333.447266"/>
      <use xlink:href="#ArialMT-6e" x="389.0625"/>
      <use xlink:href="#ArialMT-74" x="444.677734"/>
      <use xlink:href="#ArialMT-73" x="472.460938"/>
      <use xlink:href="#ArialMT-20" x="522.460938"/>
      <use xlink:href="#ArialMT-28" x="550.244141"/>
      <use xlink:href="#ArialMT-73" x="583.544922"/>
      <use xlink:href="#ArialMT-6f" x="633.544922"/>
      <use xlink:href="#ArialMT-72" x="689.160156"/>
      <use xlink:href="#ArialMT-74" x="722.460938"/>
      <use xlink:href="#ArialMT-65" x="750.244141"/>
      <use xlink:href="#ArialMT-64" x="805.859375"/>
      <use xlink:href="#ArialMT-29" x="861.474609"/>
     </g>
    </g>
   </g>
   <g id="matplotlib.axis_2">
    <g id="ytick_1">
     <g id="line2d_1">
      <path d="M 63.915 284.346203 
L 398.715 284.346203 
" clip-path="url(#pac7fafc182)" style="fill: none; stroke: #b0b0b0; stroke-width: 0.8; stroke-linecap: square"/>
     </g>
     <g id="line2d_2"/>
     <g id="text_2">
      <!-- 50 -->
      <g transform="translate(33.7225 292.935578) scale(0.24 -0.24)">
       <defs>
        <path id="ArialMT-35" d="M 266 1200 
L 856 1250 
Q 922 819 1161 601 
Q 1400 384 1738 384 
Q 2144 384 2425 690 
Q 2706 997 2706 1503 
Q 2706 1984 2436 2262 
Q 2166 2541 1728 2541 
Q 1456 2541 1237 2417 
Q 1019 2294 894 2097 
L 366 2166 
L 809 4519 
L 3088 4519 
L 3088 3981 
L 1259 3981 
L 1013 2750 
Q 1425 3038 1878 3038 
Q 2478 3038 2890 2622 
Q 3303 2206 3303 1553 
Q 3303 931 2941 478 
Q 2500 -78 1738 -78 
Q 1113 -78 717 272 
Q 322 622 266 1200 
z
" transform="scale(0.015625)"/>
        <path id="ArialMT-30" d="M 266 2259 
Q 266 3072 433 3567 
Q 600 4063 929 4331 
Q 1259 4600 1759 4600 
Q 2128 4600 2406 4451 
Q 2684 4303 2865 4023 
Q 3047 3744 3150 3342 
Q 3253 2941 3253 2259 
Q 3253 1453 3087 958 
Q 2922 463 2592 192 
Q 2263 -78 1759 -78 
Q 1097 -78 719 397 
Q 266 969 266 2259 
z
M 844 2259 
Q 844 1131 1108 757 
Q 1372 384 1759 384 
Q 2147 384 2411 759 
Q 2675 1134 2675 2259 
Q 2675 3391 2411 3762 
Q 2147 4134 1753 4134 
Q 1366 4134 1134 3806 
Q 844 3388 844 2259 
z
" transform="scale(0.015625)"/>
       </defs>
       <use xlink:href="#ArialMT-35"/>
       <use xlink:href="#ArialMT-30" x="55.615234"/>
      </g>
     </g>
    </g>
    <g id="ytick_2">
     <g id="line2d_3">
      <path d="M 63.915 227.863292 
L 398.715 227.863292 
" clip-path="url(#pac7fafc182)" style="fill: none; stroke: #b0b0b0; stroke-width: 0.8; stroke-linecap: square"/>
     </g>
     <g id="line2d_4"/>
     <g id="text_3">
      <!-- 60 -->
      <g transform="translate(33.7225 236.452667) scale(0.24 -0.24)">
       <defs>
        <path id="ArialMT-36" d="M 3184 3459 
L 2625 3416 
Q 2550 3747 2413 3897 
Q 2184 4138 1850 4138 
Q 1581 4138 1378 3988 
Q 1113 3794 959 3422 
Q 806 3050 800 2363 
Q 1003 2672 1297 2822 
Q 1591 2972 1913 2972 
Q 2475 2972 2870 2558 
Q 3266 2144 3266 1488 
Q 3266 1056 3080 686 
Q 2894 316 2569 119 
Q 2244 -78 1831 -78 
Q 1128 -78 684 439 
Q 241 956 241 2144 
Q 241 3472 731 4075 
Q 1159 4600 1884 4600 
Q 2425 4600 2770 4297 
Q 3116 3994 3184 3459 
z
M 888 1484 
Q 888 1194 1011 928 
Q 1134 663 1356 523 
Q 1578 384 1822 384 
Q 2178 384 2434 671 
Q 2691 959 2691 1453 
Q 2691 1928 2437 2201 
Q 2184 2475 1800 2475 
Q 1419 2475 1153 2201 
Q 888 1928 888 1484 
z
" transform="scale(0.015625)"/>
       </defs>
       <use xlink:href="#ArialMT-36"/>
       <use xlink:href="#ArialMT-30" x="55.615234"/>
      </g>
     </g>
    </g>
    <g id="ytick_3">
     <g id="line2d_5">
      <path d="M 63.915 171.38038 
L 398.715 171.38038 
" clip-path="url(#pac7fafc182)" style="fill: none; stroke: #b0b0b0; stroke-width: 0.8; stroke-linecap: square"/>
     </g>
     <g id="line2d_6"/>
     <g id="text_4">
      <!-- 70 -->
      <g transform="translate(33.7225 179.969755) scale(0.24 -0.24)">
       <defs>
        <path id="ArialMT-37" d="M 303 3981 
L 303 4522 
L 3269 4522 
L 3269 4084 
Q 2831 3619 2401 2847 
Q 1972 2075 1738 1259 
Q 1569 684 1522 0 
L 944 0 
Q 953 541 1156 1306 
Q 1359 2072 1739 2783 
Q 2119 3494 2547 3981 
L 303 3981 
z
" transform="scale(0.015625)"/>
       </defs>
       <use xlink:href="#ArialMT-37"/>
       <use xlink:href="#ArialMT-30" x="55.615234"/>
      </g>
     </g>
    </g>
    <g id="ytick_4">
     <g id="line2d_7">
      <path d="M 63.915 114.897469 
L 398.715 114.897469 
" clip-path="url(#pac7fafc182)" style="fill: none; stroke: #b0b0b0; stroke-width: 0.8; stroke-linecap: square"/>
     </g>
     <g id="line2d_8"/>
     <g id="text_5">
      <!-- 80 -->
      <g transform="translate(33.7225 123.486844) scale(0.24 -0.24)">
       <defs>
        <path id="ArialMT-38" d="M 1131 2484 
Q 781 2613 612 2850 
Q 444 3088 444 3419 
Q 444 3919 803 4259 
Q 1163 4600 1759 4600 
Q 2359 4600 2725 4251 
Q 3091 3903 3091 3403 
Q 3091 3084 2923 2848 
Q 2756 2613 2416 2484 
Q 2838 2347 3058 2040 
Q 3278 1734 3278 1309 
Q 3278 722 2862 322 
Q 2447 -78 1769 -78 
Q 1091 -78 675 323 
Q 259 725 259 1325 
Q 259 1772 486 2073 
Q 713 2375 1131 2484 
z
M 1019 3438 
Q 1019 3113 1228 2906 
Q 1438 2700 1772 2700 
Q 2097 2700 2305 2904 
Q 2513 3109 2513 3406 
Q 2513 3716 2298 3927 
Q 2084 4138 1766 4138 
Q 1444 4138 1231 3931 
Q 1019 3725 1019 3438 
z
M 838 1322 
Q 838 1081 952 856 
Q 1066 631 1291 507 
Q 1516 384 1775 384 
Q 2178 384 2440 643 
Q 2703 903 2703 1303 
Q 2703 1709 2433 1975 
Q 2163 2241 1756 2241 
Q 1359 2241 1098 1978 
Q 838 1716 838 1322 
z
" transform="scale(0.015625)"/>
       </defs>
       <use xlink:href="#ArialMT-38"/>
       <use xlink:href="#ArialMT-30" x="55.615234"/>
      </g>
     </g>
    </g>
    <g id="ytick_5">
     <g id="line2d_9">
      <path d="M 63.915 58.414557 
L 398.715 58.414557 
" clip-path="url(#pac7fafc182)" style="fill: none; stroke: #b0b0b0; stroke-width: 0.8; stroke-linecap: square"/>
     </g>
     <g id="line2d_10"/>
     <g id="text_6">
      <!-- 90 -->
      <g transform="translate(33.7225 67.003932) scale(0.24 -0.24)">
       <defs>
        <path id="ArialMT-39" d="M 350 1059 
L 891 1109 
Q 959 728 1153 556 
Q 1347 384 1650 384 
Q 1909 384 2104 503 
Q 2300 622 2425 820 
Q 2550 1019 2634 1356 
Q 2719 1694 2719 2044 
Q 2719 2081 2716 2156 
Q 2547 1888 2255 1720 
Q 1963 1553 1622 1553 
Q 1053 1553 659 1965 
Q 266 2378 266 3053 
Q 266 3750 677 4175 
Q 1088 4600 1706 4600 
Q 2153 4600 2523 4359 
Q 2894 4119 3086 3673 
Q 3278 3228 3278 2384 
Q 3278 1506 3087 986 
Q 2897 466 2520 194 
Q 2144 -78 1638 -78 
Q 1100 -78 759 220 
Q 419 519 350 1059 
z
M 2653 3081 
Q 2653 3566 2395 3850 
Q 2138 4134 1775 4134 
Q 1400 4134 1122 3828 
Q 844 3522 844 3034 
Q 844 2597 1108 2323 
Q 1372 2050 1759 2050 
Q 2150 2050 2401 2323 
Q 2653 2597 2653 3081 
z
" transform="scale(0.015625)"/>
       </defs>
       <use xlink:href="#ArialMT-39"/>
       <use xlink:href="#ArialMT-30" x="55.615234"/>
      </g>
     </g>
    </g>
    <g id="text_7">
     <!-- Task duration (min) -->
     <g transform="translate(24.67125 275.5425) rotate(-90) scale(0.24 -0.24)">
      <defs>
       <path id="ArialMT-54" d="M 1659 0 
L 1659 4041 
L 150 4041 
L 150 4581 
L 3781 4581 
L 3781 4041 
L 2266 4041 
L 2266 0 
L 1659 0 
z
" transform="scale(0.015625)"/>
       <path id="ArialMT-6b" d="M 425 0 
L 425 4581 
L 988 4581 
L 988 1969 
L 2319 3319 
L 3047 3319 
L 1778 2088 
L 3175 0 
L 2481 0 
L 1384 1697 
L 988 1316 
L 988 0 
L 425 0 
z
" transform="scale(0.015625)"/>
       <path id="ArialMT-75" d="M 2597 0 
L 2597 488 
Q 2209 -75 1544 -75 
Q 1250 -75 995 37 
Q 741 150 617 320 
Q 494 491 444 738 
Q 409 903 409 1263 
L 409 3319 
L 972 3319 
L 972 1478 
Q 972 1038 1006 884 
Q 1059 663 1231 536 
Q 1403 409 1656 409 
Q 1909 409 2131 539 
Q 2353 669 2445 892 
Q 2538 1116 2538 1541 
L 2538 3319 
L 3100 3319 
L 3100 0 
L 2597 0 
z
" transform="scale(0.015625)"/>
       <path id="ArialMT-6d" d="M 422 0 
L 422 3319 
L 925 3319 
L 925 2853 
Q 1081 3097 1340 3245 
Q 1600 3394 1931 3394 
Q 2300 3394 2536 3241 
Q 2772 3088 2869 2813 
Q 3263 3394 3894 3394 
Q 4388 3394 4653 3120 
Q 4919 2847 4919 2278 
L 4919 0 
L 4359 0 
L 4359 2091 
Q 4359 2428 4304 2576 
Q 4250 2725 4106 2815 
Q 3963 2906 3769 2906 
Q 3419 2906 3187 2673 
Q 2956 2441 2956 1928 
L 2956 0 
L 2394 0 
L 2394 2156 
Q 2394 2531 2256 2718 
Q 2119 2906 1806 2906 
Q 1569 2906 1367 2781 
Q 1166 2656 1075 2415 
Q 984 2175 984 1722 
L 984 0 
L 422 0 
z
" transform="scale(0.015625)"/>
      </defs>
      <use xlink:href="#ArialMT-54"/>
      <use xlink:href="#ArialMT-61" x="49.958984"/>
      <use xlink:href="#ArialMT-73" x="105.574219"/>
      <use xlink:href="#ArialMT-6b" x="155.574219"/>
      <use xlink:href="#ArialMT-20" x="205.574219"/>
      <use xlink:href="#ArialMT-64" x="233.357422"/>
      <use xlink:href="#ArialMT-75" x="288.972656"/>
      <use xlink:href="#ArialMT-72" x="344.587891"/>
      <use xlink:href="#ArialMT-61" x="377.888672"/>
      <use xlink:href="#ArialMT-74" x="433.503906"/>
      <use xlink:href="#ArialMT-69" x="461.287109"/>
      <use xlink:href="#ArialMT-6f" x="483.503906"/>
      <use xlink:href="#ArialMT-6e" x="539.119141"/>
      <use xlink:href="#ArialMT-20" x="594.734375"/>
      <use xlink:href="#ArialMT-28" x="622.517578"/>
      <use xlink:href="#ArialMT-6d" x="655.818359"/>
      <use xlink:href="#ArialMT-69" x="739.119141"/>
      <use xlink:href="#ArialMT-6e" x="761.335938"/>
      <use xlink:href="#ArialMT-29" x="816.951172"/>
     </g>
    </g>
   </g>
   <g id="patch_3">
    <path d="M 63.915 339.84 
L 63.915 7.2 
" style="fill: none; stroke: #d3d3d3; stroke-width: 0.8; stroke-linejoin: miter; stroke-linecap: square"/>
   </g>
   <g id="patch_4">
    <path d="M 398.715 339.84 
L 398.715 7.2 
" style="fill: none; stroke: #d3d3d3; stroke-width: 0.8; stroke-linejoin: miter; stroke-linecap: square"/>
   </g>
   <g id="patch_5">
    <path d="M 63.915 339.84 
L 398.715 339.84 
" style="fill: none; stroke: #d3d3d3; stroke-width: 0.8; stroke-linejoin: miter; stroke-linecap: square"/>
   </g>
   <g id="patch_6">
    <path d="M 63.915 7.2 
L 398.715 7.2 
" style="fill: none; stroke: #d3d3d3; stroke-width: 0.8; stroke-linejoin: miter; stroke-linecap: square"/>
   </g>
  </g>
 </g>
 <defs>
  <clipPath id="pac7fafc182">
   <rect x="63.915" y="7.2" width="334.8" height="332.64"/>
  </clipPath>
 </defs>
</svg>
